<?xml version="1.0" encoding="UTF-8"?>
<!-- Generator: Adobe Illustrator 22.0.1, SVG Export Plug-In . SVG Version: 6.00 Build 0)  -->
<svg xmlns="http://www.w3.org/2000/svg" xmlns:xlink="http://www.w3.org/1999/xlink" xmlns:dc="http://purl.org/dc/elements/1.1/" xmlns:cc="http://creativecommons.org/ns#" xmlns:rdf="http://www.w3.org/1999/02/22-rdf-syntax-ns#" version="1.1" id="designs" x="0px" y="0px" width="32px" height="32px" viewBox="0 0 32 32" style="enable-background:new 0 0 32 32;" xml:space="preserve">
<title property="dc:title">to battle</title><desc property="dc:description">An icon for "battle" from the Science and Fiction series on to [icon]. Downloaded from http://www.toicon.com/icons/science-and-fiction_battle by 181.59.57.126 on 2018-02-07. Licensed CC-BY, see http://toicon.com/license/ for details.</desc>
<path class="scienceandfiction_een" d="M28,13.5l1-1.5h-1h-1h-1l1,1.5V22h-1v1h-5v-1h-2L17,5h-2l-2,17h-2v1H6v-1H5v-8.5L6,12H5H4H3  l1,1.5V22H3v6h3v-0.714l5,1.429V31h3v-2h4v2h3v-2.286l5-1.429V28h3v-6h-1V13.5z M4,27v-4h1v4H4z M6,26.246V24h5v3.674L6,26.246z   M13,30h-1v-7h1V30z M14,28v-4.945L15.895,6h0.21l1.887,17.02L17.999,28H14z M20,30h-1v-7h1V30z M21,27.674V24h5v2.246L21,27.674z   M28,27h-1v-4h1V27z" style="fill: #2B4099;"/>
<path class="scienceandfiction_twee" d="M17,18v1h-2v-1H17L17,18z M17,20h-2v1h2V20L17,20z M28,1h-1v6h1V1z M28,8h-1v1h1V8z M5,3H4  v6h1V3z M5,10H4v1h1V10z" style="fill: #CC2954;"/>
<metadata><work rdf:about=""><format>image/svg+xml</format><type rdf:resource="http://purl.org/dc/dcmitype/StillImage"/><license rdf:resource="http://creativecommons.org/licenses/by/4.0/"/><attributionname>Kamila Piątkowska</attributionname><attributionurl>http://www.toicon.com/icons/science-and-fiction_battle</attributionurl></work></metadata></svg>
